<svg xmlns="http://www.w3.org/2000/svg" viewBox="0 0 173.96 331.12"><defs><style>.cls-1{fill:#fff;}.cls-2{fill:#8bbaac;}.cls-2,.cls-3,.cls-4{stroke:#130f3b;stroke-linecap:round;stroke-linejoin:round;stroke-width:5px;}.cls-3{fill:none;}.cls-4{fill:#eccc63;}</style></defs><title>bukuHijau</title><g id="Layer_2" data-name="Layer 2"><g id="Layer_1-2" data-name="Layer 1"><polygon class="cls-1" points="141.44 26.97 155.57 32.63 159.15 238.58 29.35 316.63 14.82 308.18 143.14 229.94 141.44 26.97"/><polygon class="cls-2" points="2.5 84.62 139.17 2.5 143.14 229.94 6.47 312.06 2.5 84.62"/><path class="cls-3" d="M29.77,298.06"/><polygon class="cls-2" points="14.82 308.18 29.35 316.63 29.33 316.59 159.15 238.58 155.57 33.53 155.57 32.63 141.44 26.97 149.62 29.8 167.5 19.06 171.47 246.5 34.79 328.63 6.47 312.06 14.82 308.18"/><polygon class="cls-4" points="18.36 76.26 19.76 156.38 32.89 132.8 46.35 140.17 44.96 60.28 18.36 76.26"/></g></g></svg>