<svg xmlns="http://www.w3.org/2000/svg" viewBox="0 0 173.96 331.12"><defs><style>.cls-1,.cls-3{fill:#fff;}.cls-2{fill:#eccc63;stroke-width:5px;}.cls-2,.cls-3{stroke:#130f3b;stroke-linecap:round;stroke-linejoin:round;}.cls-3{font-size:26.03px;font-family:Lato-Black, Lato;}.cls-4{letter-spacing:-0.03em;}</style></defs><title>bukuKuning</title><g id="Layer_2" data-name="Layer 2"><g id="Layer_1-2" data-name="Layer 1"><polygon class="cls-1" points="141.44 26.97 155.57 32.63 159.15 238.58 29.35 316.63 14.82 308.18 143.14 229.94 141.44 26.97"/><polygon class="cls-2" points="2.5 84.62 139.17 2.5 143.14 229.94 6.47 312.06 2.5 84.62"/><polygon class="cls-2" points="14.82 308.18 29.35 316.63 29.33 316.59 159.15 238.58 155.57 33.53 155.57 32.63 141.44 26.97 149.62 29.8 167.5 19.06 171.47 246.5 34.79 328.63 6.47 312.06 14.82 308.18"/><text class="cls-3" transform="matrix(0.86, -0.52, 0.02, 1, 28.55, 130.8)">KA<tspan class="cls-4" x="37.77" y="0">R</tspan><tspan x="54.31" y="0">TU </tspan><tspan x="-4.95" y="31.24">KUNING</tspan></text></g></g></svg>