<svg xmlns="http://www.w3.org/2000/svg" viewBox="0 0 125.19 243.77"><defs><style>.cls-1{fill:#8bbaac;}.cls-1,.cls-2,.cls-3{stroke:#130f3b;stroke-linecap:round;stroke-linejoin:round;stroke-width:5px;}.cls-2{fill:none;}.cls-3{fill:#daa0bf;}</style></defs><title>handphone</title><g id="Layer_2" data-name="Layer 2"><g id="Layer_1-2" data-name="Layer 1"><path class="cls-1" d="M119.08,221.26"/><path class="cls-1" d="M22.5,163.22"/><polyline class="cls-1" points="119.08 221.26 121.89 60.53 25.3 2.5"/><polygon class="cls-1" points="101.89 75.53 5.3 17.5 2.5 183.24 99.08 241.27 101.89 75.53"/><path class="cls-2" d="M5.31,17.5l20-15Z"/><path class="cls-2" d="M121.89,60.53l-20,15Z"/><polygon class="cls-1" points="25.3 2.5 121.89 60.53 101.89 75.53 5.3 17.5 25.3 2.5"/><polygon class="cls-1" points="122.69 60.97 102.69 75.97 99.08 241.2 119.08 226.2 122.69 60.97"/><polygon class="cls-3" points="88.78 83.36 17.67 40.64 15.61 158.97 86.72 201.7 88.78 83.36"/><path class="cls-1" d="M51.32,195.85c0,3.57-2.52,5-5.63,3.21a12.4,12.4,0,0,1-5.63-9.71c0-3.57,2.52-5,5.63-3.21A12.4,12.4,0,0,1,51.32,195.85Z"/></g></g></svg>