<svg xmlns="http://www.w3.org/2000/svg" viewBox="0 0 370.6 387.67"><defs><style>.cls-1{fill:#c5355e;}.cls-1,.cls-2,.cls-3,.cls-4{stroke:#130f3b;stroke-linecap:round;stroke-linejoin:round;stroke-width:5px;}.cls-2{fill:none;}.cls-3{fill:#eccc63;}.cls-4{fill:#8bbaac;}</style></defs><title>laptop</title><g id="Layer_2" data-name="Layer 2"><g id="Layer_1-2" data-name="Layer 1"><polygon class="cls-1" points="230.26 160.51 2.5 292.01 2.5 134 230.26 2.5 230.26 160.51"/><polygon class="cls-1" points="230.6 174.66 2.84 306.16 139.68 385.17 367.44 253.67 230.6 174.66"/><polygon class="cls-1" points="231.26 161.41 3.5 292.91 140.34 371.92 368.1 240.42 231.26 161.41"/><path class="cls-2" d="M367.44,253.67l.66-13.25Z"/><polygon class="cls-1" points="241.75 167.59 13.99 299.09 13.99 141.08 241.75 9.58 241.75 167.59"/><path class="cls-2" d="M2.5,134,14,141.08Z"/><polygon class="cls-1" points="230.26 2.5 241.75 9.58 13.99 141.08 2.5 134 230.26 2.5"/><polygon class="cls-1" points="2.5 292.01 2.84 306.16 139.68 385.17 140.34 371.92 13.99 299.09 13.99 141.08 2.5 134 2.5 292.01"/><polygon class="cls-3" points="216.86 165.14 41.59 266.33 40.88 143.52 216.15 42.33 216.86 165.14"/><polygon class="cls-1" points="139.68 385.17 140.34 371.92 368.1 240.42 367.44 253.67 139.68 385.17"/><polygon class="cls-4" points="38.4 298.75 241.75 181.1 292.9 212.25 91.4 329.75 38.4 298.75"/><polygon class="cls-4" points="230.26 261.75 166.89 299.09 206.9 318.75 269.4 282.75 230.26 261.75"/></g></g></svg>