<?xml version="1.0" encoding="utf-8"?>
<!-- Generator: Adobe Illustrator 21.0.0, SVG Export Plug-In . SVG Version: 6.00 Build 0)  -->
<!DOCTYPE svg PUBLIC "-//W3C//DTD SVG 1.1//EN" "http://www.w3.org/Graphics/SVG/1.1/DTD/svg11.dtd">
<svg version="1.1" id="Layer_1" xmlns="http://www.w3.org/2000/svg" xmlns:xlink="http://www.w3.org/1999/xlink" x="0px" y="0px"
	 viewBox="0 0 370.6 387.7" style="enable-background:new 0 0 370.6 387.7;" xml:space="preserve">
<style type="text/css">
	.st0{fill:#C5355E;stroke:#130F3B;stroke-width:5;stroke-linecap:round;stroke-linejoin:round;}
	.st1{fill:none;stroke:#130F3B;stroke-width:5;stroke-linecap:round;stroke-linejoin:round;}
	.st2{fill:#FFFFFF;stroke:#130F3B;stroke-width:5;stroke-linecap:round;stroke-linejoin:round;}
	.st3{fill:#8BBAAC;stroke:#130F3B;stroke-width:5;stroke-linecap:round;stroke-linejoin:round;}
</style>
<title>laptop</title>
<g id="Layer_2">
	<g id="Layer_1-2">
		<polygon class="st0" points="230.3,160.5 2.5,292 2.5,134 230.3,2.5 		"/>
		<polygon class="st0" points="230.6,174.7 2.8,306.2 139.7,385.2 367.4,253.7 		"/>
		<polygon class="st0" points="231.3,161.4 3.5,292.9 140.3,371.9 368.1,240.4 		"/>
		<path class="st1" d="M367.4,253.7l0.7-13.2L367.4,253.7z"/>
		<polygon class="st0" points="241.8,167.6 14,299.1 14,141.1 241.8,9.6 		"/>
		<path class="st1" d="M2.5,134l11.5,7.1L2.5,134z"/>
		<polygon class="st0" points="230.3,2.5 241.8,9.6 14,141.1 2.5,134 		"/>
		<polygon class="st0" points="2.5,292 2.8,306.2 139.7,385.2 140.3,371.9 14,299.1 14,141.1 2.5,134 		"/>
		<polygon class="st2" points="216.9,165.1 41.6,266.3 40.9,143.5 216.1,42.3 		"/>
		<polygon class="st0" points="139.7,385.2 140.3,371.9 368.1,240.4 367.4,253.7 		"/>
		<polygon class="st3" points="38.4,298.7 241.8,181.1 292.9,212.2 91.4,329.7 		"/>
		<polygon class="st3" points="230.3,261.7 166.9,299.1 206.9,318.7 269.4,282.7 		"/>
	</g>
</g>
</svg>
