<svg xmlns="http://www.w3.org/2000/svg" viewBox="0 0 120.96 271.99"><defs><style>.cls-1,.cls-2{fill:#fff;}.cls-2,.cls-4,.cls-5,.cls-6{stroke:#130f3b;stroke-linecap:round;stroke-linejoin:round;stroke-width:5px;}.cls-3,.cls-4{fill:#daa0bf;}.cls-5{fill:none;}.cls-6{fill:#c5355e;}</style></defs><title>pensil</title><g id="Layer_2" data-name="Layer 2"><g id="Layer_1-2" data-name="Layer 1"><polygon class="cls-1" points="71.8 34.02 69.72 42.14 76.79 52.85 91.53 57.59 99.85 56.02 105.45 51.46 104.71 47.16 91.53 47.16 80.45 41.85 71.8 34.02"/><polyline class="cls-2" points="38.38 230.82 2.5 269.49 2.5 216.93"/><polygon class="cls-3" points="81.67 8.13 72.52 32.14 79.08 40.87 91.53 47.16 104.71 47.16 109.83 42.95 117.72 21.78 81.67 8.13"/><path class="cls-4" d="M89.81,2.75c8.65-1.37,20.16,3.07,25.71,9.92s3,13.51-5.62,14.88-20.16-3.07-25.71-9.92S81.15,4.12,89.81,2.75Z"/><path class="cls-5" d="M39.53,228.16a6.56,6.56,0,0,1-.38,1.12"/><path class="cls-5" d="M109.83,42.95c-1.15,2.45-3.87,4.27-7.93,4.91-8.65,1.37-20.16-3.07-25.71-9.92-3.1-3.83-3.68-7.6-2.08-10.42"/><path class="cls-6" d="M105.88,53.17c-1.27,2.2-3.89,3.81-7.67,4.41-8.65,1.37-20.16-3.07-25.71-9.92-2.41-3-3.3-5.91-2.82-8.39l12-31.13L3.1,214.26,2.51,217c-.09,2.25.86,4.79,2.94,7.36,5.55,6.85,17.06,11.29,25.71,9.92a12.22,12.22,0,0,0,6.06-2.51l1.16-1,80.08-211"/></g></g></svg>