<svg xmlns="http://www.w3.org/2000/svg" viewBox="0 0 208.6 357.75"><defs><style>.cls-1,.cls-3{fill:#eccc63;}.cls-2{fill:#c5355e;}.cls-2,.cls-3,.cls-4,.cls-5{stroke:#130f3b;stroke-linecap:round;stroke-linejoin:round;stroke-width:5px;}.cls-4{fill:none;}.cls-5{fill:#130f3b;}.cls-6{font-size:10px;fill:#fff;font-family:Lato-Black, Lato;}.cls-7{letter-spacing:-0.03em;}</style></defs><title>piala</title><g id="Layer_2" data-name="Layer 2"><g id="Layer_1-2" data-name="Layer 1"><rect class="cls-1" x="21.78" y="50.31" width="164.6" height="99.02"/><polygon class="cls-2" points="104.44 355.25 2.5 296.39 103.73 237.95 205.67 296.8 104.44 355.25"/><polygon class="cls-2" points="104.87 296.6 2.93 237.74 104.16 179.3 206.1 238.15 104.87 296.6"/><path class="cls-3" d="M122,248.43c-9.76,5.41-25.48,5.1-35.11-.68s-9.53-14.86.23-20.27,25.48-5.1,35.11.68S131.71,243,122,248.43Z"/><rect class="cls-1" x="79.69" y="176.28" width="49.65" height="61.67"/><path class="cls-3" d="M162.64,85.23c-32.53,18-84.92,17-117-2.28s-31.76-49.54.77-67.57,84.92-17,117,2.28S195.17,67.2,162.64,85.23Z"/><path class="cls-3" d="M187,146.07c-1.48,11-9.62,21.75-24.38,29.93-32.53,18-84.92,17-117-2.28-15.35-9.22-23.28-20.95-23.82-32.65"/><line class="cls-4" x1="187.02" y1="146.07" x2="187.02" y2="55.43"/><line class="cls-4" x1="21.77" y1="54.74" x2="21.77" y2="141.08"/><line class="cls-3" x1="21.81" y1="50.31" x2="21.76" y2="145.36"/><line class="cls-4" x1="79.69" y1="237.95" x2="79.69" y2="186.83"/><line class="cls-4" x1="129.34" y1="237.95" x2="129.34" y2="188.89"/><polygon class="cls-2" points="2.93 237.74 2.5 296.39 104.44 355.25 205.67 296.8 206.1 238.15 104.87 296.6 2.93 237.74"/><line class="cls-4" x1="104.87" y1="296.6" x2="104.44" y2="355.25"/><polygon class="cls-5" points="17 258.07 17 290.73 89.5 334.23 89.5 300.4 17 258.07"/><text class="cls-6" transform="matrix(0.87, 0.5, 0, -1, 21.86, 275.02)"><tspan class="cls-7">A</tspan><tspan x="7.07" y="0">CHIEVEMENT</tspan></text></g></g></svg>